<?xml version="1.0" encoding="iso-8859-1"?>
<!-- Generator: Adobe Illustrator 19.0.0, SVG Export Plug-In . SVG Version: 6.00 Build 0)  -->
<svg version="1.1" id="Capa_1" xmlns="http://www.w3.org/2000/svg" xmlns:xlink="http://www.w3.org/1999/xlink" x="0px" y="0px"
	 viewBox="0 0 512 512" style="enable-background:new 0 0 512 512;" xml:space="preserve">
<g>
	<g>
		<g>
			<path d="M464,0H48C21.49,0,0,21.49,0,48v416c0,26.51,21.49,48,48,48h416c26.51,0,48-21.49,48-48V48C512,21.49,490.51,0,464,0z
				 M480,464c0,8.837-7.163,16-16,16H48c-8.837,0-16-7.163-16-16V160h448V464z M480,128H32V48c0-8.837,7.163-16,16-16h416
				c8.837,0,16,7.163,16,16V128z"/>
			<rect x="64" y="64" width="32" height="32"/>
			<rect x="128" y="64" width="32" height="32"/>
			<rect x="416" y="64" width="32" height="32"/>
			<path d="M96,336h32v48h32v-48h32v-32h-32v-48h-32v48h-16v-48H80v64C80,328.837,87.163,336,96,336z"/>
			<path d="M336,336h32v48h32v-48h32v-32h-32v-48h-32v48h-16v-48h-32v64C320,328.837,327.163,336,336,336z"/>
			<path d="M256,384c26.51,0,48-21.49,48-48v-32c0-26.51-21.49-48-48-48c-26.51,0-48,21.49-48,48v32C208,362.51,229.49,384,256,384z
				 M240,304c0-8.837,7.163-16,16-16s16,7.163,16,16v32c0,8.837-7.163,16-16,16s-16-7.163-16-16V304z"/>
		</g>
	</g>
</g>
<g>
</g>
<g>
</g>
<g>
</g>
<g>
</g>
<g>
</g>
<g>
</g>
<g>
</g>
<g>
</g>
<g>
</g>
<g>
</g>
<g>
</g>
<g>
</g>
<g>
</g>
<g>
</g>
<g>
</g>
</svg>
