<?xml version="1.0" standalone="no"?>
<!DOCTYPE svg PUBLIC "-//W3C//DTD SVG 20010904//EN"
 "http://www.w3.org/TR/2001/REC-SVG-20010904/DTD/svg10.dtd">
<svg version="1.0" xmlns="http://www.w3.org/2000/svg"
 width="700.000000pt" height="700.000000pt" viewBox="0 0 700.000000 700.000000"
 preserveAspectRatio="xMidYMid meet">
<metadata>
Created by potrace 1.11, written by Peter Selinger 2001-2013
</metadata>
<g transform="translate(0.000000,700.000000) scale(0.100000,-0.100000)"
fill="#000000" stroke="none">
<path d="M505 6981 c-247 -60 -444 -264 -493 -509 -4 -21 -7 -1364 -7 -2987
l0 -2950 28 -81 c59 -177 189 -321 357 -396 126 -57 -93 -53 3120 -53 l2965 0
74 27 c228 85 382 256 435 483 14 64 15 336 13 3010 -2 2660 -4 2945 -18 2990
-83 260 -266 425 -529 475 -25 5 -1357 9 -2960 9 -2727 0 -2920 -2 -2985 -18z
m5903 -430 c55 -15 110 -65 135 -120 18 -42 19 -70 19 -595 0 -303 -1 -559 -1
-568 -1 -17 -154 -18 -3061 -18 -2907 0 -3060 1 -3061 18 0 9 -1 265 -1 567
-1 599 -2 583 57 653 34 41 75 62 133 71 25 3 1326 5 2891 5 2144 -1 2857 -4
2889 -13z m149 -1745 c4 -3 6 -948 6 -2098 0 -2306 5 -2124 -62 -2201 -18 -19
-52 -43 -77 -53 -43 -16 -220 -17 -2917 -17 -2177 0 -2882 3 -2915 12 -59 17
-127 83 -142 141 -10 35 -13 514 -13 2126 0 1144 2 2085 5 2090 7 10 6105 10
6115 0z"/>
<path d="M881 6115 c-4 -5 -7 -104 -7 -219 l1 -208 213 -1 c117 0 215 3 218 6
5 5 9 325 5 412 -1 20 -7 20 -212 20 -131 0 -213 -3 -218 -10z"/>
<path d="M1750 5908 c0 -167 3 -218 13 -219 14 -1 370 0 404 0 21 1 22 2 22
219 l1 217 -220 0 -220 0 0 -217z"/>
<path d="M5690 6105 c-1 -35 -1 -328 -1 -375 l1 -45 210 1 c116 1 214 5 218 9
8 8 10 424 2 426 -3 1 -101 2 -217 3 -207 1 -213 1 -213 -19z"/>
<path d="M1097 3493 c-2 -5 -3 -213 -3 -463 2 -500 1 -494 64 -556 63 -63 81
-67 349 -68 l243 -1 0 -327 0 -328 219 0 220 0 0 318 c0 174 0 322 1 328 0 7
65 11 211 10 116 -1 214 1 218 4 11 8 8 430 -4 431 -5 1 -101 2 -212 3 -111 0
-204 4 -208 7 -3 4 -6 151 -7 328 l0 321 -219 0 -219 0 0 -328 0 -327 -107 0
-108 0 -3 328 -2 327 -215 0 c-117 0 -216 -3 -218 -7z"/>
<path d="M3365 3484 c-266 -58 -475 -277 -513 -539 -7 -45 -8 -556 -2 -625 6
-63 50 -187 90 -255 68 -113 193 -217 320 -268 87 -34 108 -38 221 -43 324
-13 596 206 662 533 18 91 16 634 -3 708 -89 347 -433 564 -775 489z m254
-459 c23 -16 54 -49 69 -74 l27 -46 2 -260 c1 -143 -2 -275 -7 -294 -25 -91
-115 -161 -211 -161 -90 0 -183 70 -209 158 -5 18 -8 151 -7 295 l2 264 30 49
c63 102 204 135 304 69z"/>
<path d="M4375 3043 c1 -252 5 -469 9 -483 18 -51 58 -98 108 -125 l51 -28
244 -1 243 0 0 -328 0 -328 220 0 220 0 0 328 0 328 218 0 217 0 0 219 0 219
-217 1 -218 0 0 327 0 328 -220 0 -220 0 0 -328 0 -328 -107 0 -108 1 -2 290
c-1 160 -2 307 -2 328 l-1 37 -218 0 -218 0 1 -457z"/>
</g>
</svg>
